<svg xmlns="http://www.w3.org/2000/svg" viewBox="0 0 60 60" fill="none">
  <!-- TSH letters - bold angular style -->
  <g fill="#ffffff">
    <!-- T -->
    <polygon points="6,14 24,14 24,19 18,19 18,36 12,36 12,19 6,19"/>
    <!-- S -->
    <path d="M25,14h14v6h-8v3h8v7h-8v3h8v6h-14v-6h8v-3h-8v-7h8v-3h-8z"/>
    <!-- H with arrow -->
    <polygon points="41,14 47,14 47,22 51,22 51,14 57,14 57,36 51,36 51,28 47,28 47,36 41,36"/>
    <!-- Arrow on H -->
    <polygon points="49,10 54,16 52,16 52,14 46,14 46,16 44,16"/>
  </g>
  <!-- AI text -->
  <g fill="rgba(255,255,255,0.85)">
    <text x="30" y="50" font-family="Inter,Arial,sans-serif" font-weight="900" font-size="11" text-anchor="middle" letter-spacing="2">AI</text>
  </g>
</svg>
